<svg width="208" height="40" viewBox="0 0 208 40" fill="none" xmlns="http://www.w3.org/2000/svg">
<g opacity="0.9">
<rect x="0.5" y="0.5" width="39" height="39" rx="19.5" stroke="white" stroke-opacity="0.2"/>
<g clip-path="url(#clip0_1_68)">
<path fill-rule="evenodd" clip-rule="evenodd" d="M11.2276 28.4706H15.0849V17.0395H11.2276V28.4706ZM13.1812 11.5294C11.8619 11.5294 11 12.3828 11 13.5041C11 14.6032 11.8386 15.4788 13.1314 15.4788H13.1579C14.5026 15.4788 15.3391 14.6032 15.3391 13.5041C15.3147 12.3818 14.5026 11.5294 13.1812 11.5294ZM29 21.9144V28.4706H25.1406V22.3538C25.1406 20.8185 24.5836 19.7702 23.1849 19.7702C22.1187 19.7702 21.4876 20.4765 21.2049 21.1605C21.1044 21.404 21.0779 21.746 21.0779 22.0859V28.4706H17.2206C17.2206 28.4706 17.2735 18.1132 17.2206 17.0395H21.08V18.6595C21.0726 18.6722 21.0609 18.6839 21.0535 18.6977H21.08V18.6585C21.5935 17.8813 22.5073 16.7717 24.5572 16.7717C27.0941 16.7717 29 18.4044 29 21.9144Z" fill="white"/>
</g>
</g>
<g opacity="0.9">
<rect x="56.5" y="0.5" width="39" height="39" rx="19.5" stroke="white" stroke-opacity="0.2"/>
<g clip-path="url(#clip1_1_68)">
<path fill-rule="evenodd" clip-rule="evenodd" d="M83.1674 16.8629C83.1674 16.7 83.1589 16.5466 83.152 16.3855C83.8771 15.8798 84.5034 15.2457 85 14.5143C84.324 14.8012 83.609 14.9855 82.8786 15.0612C83.6476 14.6194 84.2259 13.9086 84.502 13.0658C83.7751 13.4802 82.9825 13.7666 82.1586 13.9126C81.8134 13.5419 81.397 13.2447 80.9342 13.0388C80.4714 12.8329 79.9719 12.7225 79.4654 12.7143C78.9827 12.7057 78.503 12.7934 78.0546 12.9723C77.6061 13.1513 77.1978 13.4179 76.8537 13.7566C76.5095 14.0952 76.2363 14.4991 76.0502 14.9447C75.864 15.3902 75.7686 15.8683 75.7694 16.3512C75.7694 16.6383 75.7994 16.9178 75.8663 17.1903C72.7943 17.0018 70.072 15.4958 68.2531 13.22C67.9227 13.7854 67.749 14.4286 67.75 15.0835C67.75 16.3778 68.404 17.5272 69.3966 18.2C68.8071 18.1747 68.2322 18.0087 67.72 17.7158V17.7663C67.72 18.6254 68.0148 19.4585 68.555 20.1265C69.0952 20.7945 69.8482 21.2569 70.6883 21.4366C70.3712 21.521 70.0444 21.5631 69.7163 21.5618C69.4818 21.5578 69.2482 21.5319 69.0186 21.4846C69.2499 22.224 69.707 22.8724 70.3259 23.3386C70.9447 23.8047 71.694 24.0652 72.4686 24.0835C71.7023 24.6849 70.8247 25.1289 69.8861 25.3899C68.9476 25.6509 67.9668 25.7236 67 25.604C68.6834 26.704 70.6514 27.2884 72.6623 27.2858C79.4509 27.2858 83.1674 21.7023 83.1674 16.8629Z" fill="white"/>
</g>
</g>
<g opacity="0.9">
<rect x="112.5" y="0.5" width="39" height="39" rx="19.5" stroke="white" stroke-opacity="0.2"/>
<g clip-path="url(#clip2_1_68)">
<path fill-rule="evenodd" clip-rule="evenodd" d="M132.603 29V19.9906H135.649L136.134 17.0026H132.604V15.5047C132.604 14.7221 132.866 13.981 134.01 13.981H136.304V11H133.051C130.316 11 129.571 12.7617 129.571 15.1948V17.0026H127.696V19.9906H129.571V29H132.603Z" fill="white"/>
</g>
</g>
<g opacity="0.9">
<rect x="168.5" y="0.5" width="39" height="39" rx="19.5" stroke="white" stroke-opacity="0.2"/>
<g clip-path="url(#clip3_1_68)">
<path fill-rule="evenodd" clip-rule="evenodd" d="M195.05 24.032C195.05 25.892 193.61 27.4023 191.841 27.4023H184.159C182.39 27.4023 180.95 25.892 180.95 24.032V15.9663C180.95 14.108 182.39 12.5977 184.159 12.5977H191.841C193.61 12.5977 195.05 14.108 195.05 15.9663V24.032ZM191.841 11H184.159C181.55 11 179.429 13.2277 179.429 15.9663V24.032C179.429 26.7723 181.55 29 184.16 29H191.84C194.45 29 196.571 26.7723 196.571 24.032V15.9663C196.571 13.2277 194.45 11 191.84 11H191.841Z" fill="white"/>
<path fill-rule="evenodd" clip-rule="evenodd" d="M188 23.798C187.106 23.7973 186.249 23.442 185.617 22.8101C184.985 22.1783 184.63 21.3214 184.629 20.4277C184.63 19.5337 184.985 18.6764 185.617 18.0441C186.249 17.4117 187.106 17.056 188 17.0548C188.894 17.0557 189.751 17.4114 190.383 18.0438C191.015 18.6762 191.371 19.5336 191.371 20.4277C191.37 21.3213 191.014 22.1779 190.382 22.8096C189.75 23.4413 188.894 23.7973 188 23.798ZM188 15.2857C185.165 15.2857 182.857 17.5914 182.857 20.4277C182.859 21.7913 183.401 23.0985 184.365 24.0628C185.329 25.0271 186.636 25.5696 188 25.5714C190.835 25.5714 193.143 23.2623 193.143 20.4277C193.141 19.0643 192.599 17.7572 191.635 16.7932C190.671 15.8292 189.363 15.2871 188 15.2857ZM191.858 13.5714C191.52 13.5714 191.187 13.7068 190.949 13.9468C190.711 14.1868 190.571 14.5177 190.571 14.8554C190.571 15.194 190.711 15.5257 190.949 15.7657C191.187 16.0031 191.52 16.1428 191.858 16.1428C192.197 16.1428 192.527 16.0031 192.766 15.7657C193.006 15.5257 193.143 15.194 193.143 14.8563C193.143 14.6875 193.11 14.5204 193.045 14.3644C192.981 14.2085 192.886 14.0668 192.767 13.9475C192.647 13.8282 192.506 13.7335 192.35 13.669C192.194 13.6045 192.027 13.5713 191.858 13.5714Z" fill="white"/>
</g>
</g>
<defs>
<clipPath id="clip0_1_68">
<rect width="18" height="18" fill="white" transform="translate(11 11)"/>
</clipPath>
<clipPath id="clip1_1_68">
<rect width="18" height="18" fill="white" transform="translate(67 11)"/>
</clipPath>
<clipPath id="clip2_1_68">
<rect width="18" height="18" fill="white" transform="translate(123 11)"/>
</clipPath>
<clipPath id="clip3_1_68">
<rect width="18" height="18" fill="white" transform="translate(179 11)"/>
</clipPath>
</defs>
</svg>
